<mxfile host="Electron" modified="2023-11-04T12:01:45.401Z" agent="Mozilla/5.0 (Windows NT 10.0; Win64; x64) AppleWebKit/537.36 (KHTML, like Gecko) draw.io/22.0.2 Chrome/114.0.5735.289 Electron/25.8.4 Safari/537.36" etag="tW8jPE1iUfKfPGs6qotG" version="22.0.2" type="device">
  <diagram name="Page-1" id="g4A_3akl2Jo_us9byPpT">
    <mxGraphModel dx="1818" dy="820" grid="0" gridSize="10" guides="1" tooltips="1" connect="1" arrows="1" fold="1" page="0" pageScale="1" pageWidth="850" pageHeight="1100" math="0" shadow="0">
      <root>
        <mxCell id="0" />
        <mxCell id="1" parent="0" />
        <mxCell id="eE-EXYPpm2VJeJxxN_2E-10" style="edgeStyle=orthogonalEdgeStyle;rounded=0;orthogonalLoop=1;jettySize=auto;html=1;entryX=0;entryY=0.5;entryDx=0;entryDy=0;entryPerimeter=0;" parent="1" source="eE-EXYPpm2VJeJxxN_2E-4" target="eE-EXYPpm2VJeJxxN_2E-1" edge="1">
          <mxGeometry relative="1" as="geometry" />
        </mxCell>
        <mxCell id="eE-EXYPpm2VJeJxxN_2E-4" value="&lt;b&gt;&lt;u&gt;&lt;font style=&quot;font-size: 14px;&quot;&gt;API&lt;br&gt;&lt;/font&gt;&lt;/u&gt;&lt;/b&gt;&lt;br&gt;Python/FastAPI" style="rounded=1;whiteSpace=wrap;html=1;fillColor=#b1ddf0;strokeColor=#10739e;" parent="1" vertex="1">
          <mxGeometry x="290" y="84" width="120" height="165" as="geometry" />
        </mxCell>
        <mxCell id="eE-EXYPpm2VJeJxxN_2E-1" value="" style="verticalLabelPosition=bottom;html=1;verticalAlign=top;align=center;strokeColor=none;fillColor=#00BEF2;shape=mxgraph.azure.database;" parent="1" vertex="1">
          <mxGeometry x="468" y="120.5" width="69" height="92" as="geometry" />
        </mxCell>
        <mxCell id="eE-EXYPpm2VJeJxxN_2E-2" value="" style="image;sketch=0;aspect=fixed;html=1;points=[];align=center;fontSize=12;image=img/lib/mscae/Docker.svg;" parent="1" vertex="1">
          <mxGeometry x="297" y="90" width="37.8" height="31" as="geometry" />
        </mxCell>
        <mxCell id="eE-EXYPpm2VJeJxxN_2E-5" value="&lt;u&gt;&lt;font style=&quot;font-size: 14px;&quot;&gt;&lt;b&gt;Frontend&lt;br&gt;&lt;/b&gt;&lt;/font&gt;&lt;br&gt;&lt;/u&gt;HTML5&lt;br&gt;Bootstrap&lt;br&gt;Javascript" style="rounded=1;whiteSpace=wrap;html=1;fillColor=#b1ddf0;strokeColor=#10739e;" parent="1" vertex="1">
          <mxGeometry x="118" y="84" width="120" height="165" as="geometry" />
        </mxCell>
        <mxCell id="eE-EXYPpm2VJeJxxN_2E-6" value="" style="image;sketch=0;aspect=fixed;html=1;points=[];align=center;fontSize=12;image=img/lib/mscae/Docker.svg;" parent="1" vertex="1">
          <mxGeometry x="125" y="90" width="37.8" height="31" as="geometry" />
        </mxCell>
        <mxCell id="eE-EXYPpm2VJeJxxN_2E-8" style="edgeStyle=orthogonalEdgeStyle;rounded=0;orthogonalLoop=1;jettySize=auto;html=1;entryX=0;entryY=0.5;entryDx=0;entryDy=0;" parent="1" source="eE-EXYPpm2VJeJxxN_2E-7" target="eE-EXYPpm2VJeJxxN_2E-5" edge="1">
          <mxGeometry relative="1" as="geometry" />
        </mxCell>
        <mxCell id="eE-EXYPpm2VJeJxxN_2E-11" style="edgeStyle=orthogonalEdgeStyle;rounded=0;orthogonalLoop=1;jettySize=auto;html=1;entryX=0.5;entryY=1;entryDx=0;entryDy=0;" parent="1" source="eE-EXYPpm2VJeJxxN_2E-7" target="eE-EXYPpm2VJeJxxN_2E-4" edge="1">
          <mxGeometry relative="1" as="geometry">
            <Array as="points">
              <mxPoint x="-19" y="289" />
              <mxPoint x="350" y="289" />
            </Array>
          </mxGeometry>
        </mxCell>
        <mxCell id="eE-EXYPpm2VJeJxxN_2E-7" value="" style="verticalLabelPosition=bottom;html=1;verticalAlign=top;align=center;strokeColor=none;fillColor=#00BEF2;shape=mxgraph.azure.laptop;pointerEvents=1;" parent="1" vertex="1">
          <mxGeometry x="-72" y="134.5" width="106.67" height="64" as="geometry" />
        </mxCell>
        <mxCell id="eE-EXYPpm2VJeJxxN_2E-12" value="&lt;b style=&quot;font-size: 14px;&quot;&gt;&lt;u&gt;DB Upgrade&lt;br&gt;&lt;br&gt;&lt;/u&gt;&lt;/b&gt;Python" style="rounded=1;whiteSpace=wrap;html=1;fillColor=#b1ddf0;strokeColor=#10739e;" parent="1" vertex="1">
          <mxGeometry x="592" y="84" width="120" height="165" as="geometry" />
        </mxCell>
        <mxCell id="eE-EXYPpm2VJeJxxN_2E-13" value="" style="image;sketch=0;aspect=fixed;html=1;points=[];align=center;fontSize=12;image=img/lib/mscae/Docker.svg;" parent="1" vertex="1">
          <mxGeometry x="598" y="91" width="35.36" height="29" as="geometry" />
        </mxCell>
        <mxCell id="hqxtO_8PIV8TABncmLsV-1" value="&lt;b&gt;&lt;font style=&quot;font-size: 14px;&quot;&gt;Client&lt;/font&gt;&lt;/b&gt;" style="text;html=1;strokeColor=none;fillColor=none;align=center;verticalAlign=middle;whiteSpace=wrap;rounded=0;" vertex="1" parent="1">
          <mxGeometry x="-48.660000000000025" y="144" width="60" height="30" as="geometry" />
        </mxCell>
        <mxCell id="hqxtO_8PIV8TABncmLsV-2" style="edgeStyle=orthogonalEdgeStyle;rounded=0;orthogonalLoop=1;jettySize=auto;html=1;entryX=1;entryY=0.5;entryDx=0;entryDy=0;entryPerimeter=0;" edge="1" parent="1" source="eE-EXYPpm2VJeJxxN_2E-12" target="eE-EXYPpm2VJeJxxN_2E-1">
          <mxGeometry relative="1" as="geometry" />
        </mxCell>
        <mxCell id="hqxtO_8PIV8TABncmLsV-3" value="&lt;b&gt;&lt;font style=&quot;font-size: 14px;&quot;&gt;MongoDB&lt;/font&gt;&lt;/b&gt;" style="text;html=1;strokeColor=none;fillColor=none;align=center;verticalAlign=middle;whiteSpace=wrap;rounded=0;" vertex="1" parent="1">
          <mxGeometry x="462.75" y="212.5" width="79.5" height="30" as="geometry" />
        </mxCell>
      </root>
    </mxGraphModel>
  </diagram>
</mxfile>
